<svg viewBox="0 0 100 100" fill="none" xmlns="http://www.w3.org/2000/svg">
  <ellipse cx="50" cy="50" rx="48" ry="40" fill="#002129" />

  <path id="logoTextPath" d="M 15 50 A 35 30 0 0 1 85 50" fill="none" />
  <text font-size="7" font-weight="900" letter-spacing="0.05em" fill="white" font-family="system-ui, sans-serif">
    <textPath href="#logoTextPath" startOffset="50%" text-anchor="middle">
      SEKOLAH TANAH AIR
    </textPath>
  </text>

  <g transform="translate(50, 45)">
    <path d="M 0 -18 L 3 0 L 0 18 L -3 0 Z" fill="#C0392B" />
    <path d="M -18 0 L 0 -3 L 18 0 L 0 3 Z" fill="#C0392B" />

    <path d="M -10 -10 L 0 -1.5 L 10 10 L -1.5 0 Z" fill="white" />
    <path d="M 10 -10 L 1.5 0 L -10 10 L 0 -1.5 Z" fill="white" />

    <circle cx="0" cy="0" r="3" fill="#002129" stroke="white" stroke-width="1" />
  </g>

  <g transform="translate(50, 70)" stroke="#004D5A" stroke-width="1.5" fill="none">
    <path d="M -5 0 C -15 5, -35 5, -45 -15" />
    <path d="M -5 5 C -15 10, -35 10, -45 -10" />
    <path d="M -5 10 C -15 15, -35 15, -45 -5" />

    <path d="M 5 0 C 15 5, 35 5, 45 -15" />
    <path d="M 5 5 C 15 10, 35 10, 45 -10" />
    <path d="M 5 10 C 15 15, 35 15, 45 -5" />
  </g>

  <g transform="translate(50, 70)" stroke="white" stroke-width="0.5" fill="none" opacity="0.6">
    <path d="M -5 2 C -15 7, -35 7, -45 -13" />
    <path d="M 5 2 C 15 7, 35 7, 45 -13" />
  </g>
</svg>
